<svg version="1.1" id="Layer_1" xmlns="http://www.w3.org/2000/svg" xmlns:xlink="http://www.w3.org/1999/xlink" x="0px" y="0px"
	 width="100%" viewBox="0 0 496 496" enable-background="new 0 0 496 496" xml:space="preserve">
<path fill="#000000" opacity="1.000000" stroke="none" 
	d="
M282.678375,275.897827 
	C286.061523,277.502014 288.085846,275.421814 290.298950,274.020111 
	C292.373932,272.705902 294.456207,271.403259 297.874817,269.252960 
	C287.909882,269.504303 279.308472,269.049805 270.975922,267.198212 
	C262.659943,265.350342 256.349243,267.975342 250.766006,273.751587 
	C249.962921,274.582428 248.981445,275.255096 248.028290,275.923676 
	C245.843170,277.456451 243.525558,279.444611 240.845688,277.343903 
	C238.064865,275.164062 238.233139,272.125488 239.655304,269.179199 
	C240.509613,267.409363 241.603790,265.755341 242.588379,264.048340 
	C235.779526,261.408020 234.814743,261.875122 232.225220,268.961823 
	C230.564941,273.505432 227.343323,276.467316 222.731476,277.764252 
	C218.465942,278.963806 215.863815,276.272827 217.090408,271.965820 
	C218.280334,267.787445 221.366806,264.957825 225.086349,261.841614 
	C222.268799,261.982147 220.042709,262.245483 217.827515,262.173553 
	C212.374557,261.996399 209.024719,264.546753 207.459961,269.685425 
	C207.072952,270.956360 206.621979,272.227600 206.027649,273.412048 
	C203.933502,277.585419 199.886795,279.836853 196.764786,278.256165 
	C192.217621,275.953888 194.285370,272.472290 195.608307,269.220337 
	C189.521072,270.474030 186.974716,272.739441 184.264572,279.386414 
	C183.196121,282.006927 182.420563,284.819580 180.232239,286.770233 
	C177.737152,288.994385 174.725052,289.686554 172.072556,287.428528 
	C169.473190,285.215759 170.814713,282.538055 172.427383,280.273407 
	C174.372574,277.541779 176.966354,275.425232 179.929047,273.168427 
	C178.186661,271.425446 175.560089,271.293365 174.212280,269.383392 
	C173.031174,267.709656 171.796005,265.954834 172.778488,263.884796 
	C173.794617,261.743805 175.990585,261.584625 177.997269,261.892059 
	C180.454285,262.268555 182.915161,262.826172 185.270935,263.614471 
	C190.277237,265.289734 194.972610,265.008484 199.755020,262.606537 
	C202.823624,261.065369 206.249069,260.234741 209.483307,259.096649 
	C209.367401,258.499084 209.412766,258.099884 209.235153,257.915436 
	C207.527695,256.142273 204.955276,254.530685 206.167831,251.665939 
	C207.488815,248.545013 210.662918,248.694458 213.524460,248.676849 
	C217.029083,248.655289 220.239883,249.798477 222.585815,252.275101 
	C227.296600,257.248352 232.995789,259.125885 239.667557,258.888458 
	C241.464828,258.824493 243.280685,259.282440 245.222458,259.155029 
	C238.004684,254.697006 230.112732,251.798080 222.070679,249.266876 
	C219.533859,248.468399 216.881378,248.037628 214.344086,247.240433 
	C207.710953,245.156342 201.319565,244.966080 195.265289,249.044556 
	C194.325394,249.677704 193.139587,250.002716 192.023056,250.307281 
	C185.972534,251.957809 183.137421,249.231079 184.546066,242.728592 
	C175.489410,240.938721 167.187057,243.064774 159.220413,247.149673 
	C157.894623,247.829468 156.693375,248.760773 155.463989,249.618057 
	C153.296173,251.129715 150.991119,252.102417 148.522888,250.523544 
	C146.533890,249.251251 145.693832,247.182236 146.141403,244.879913 
	C146.715820,241.925034 148.847015,240.321075 151.673080,239.802994 
	C157.236938,238.783005 162.820251,237.851181 168.501694,237.752930 
	C169.483429,237.735977 170.463577,237.626556 171.443710,237.559906 
	C171.952103,235.422272 170.098083,234.497025 169.548691,233.004608 
	C168.893494,231.224792 168.227798,229.484344 169.858871,227.922348 
	C171.367630,226.477493 173.243149,226.389771 174.967255,227.285126 
	C177.322006,228.507980 179.807129,229.706390 181.749496,231.455811 
	C188.587326,237.614380 196.441574,241.000488 206.000916,241.004318 
	C206.181763,239.021164 204.373810,237.626907 204.018402,235.773468 
	C203.497925,233.059189 203.974869,230.634521 206.545197,229.335876 
	C208.988235,228.101562 210.666031,229.824280 211.980392,231.623489 
	C213.154755,233.231064 214.234116,234.940323 215.116699,236.722885 
	C218.137009,242.822906 222.927841,246.503418 229.754578,247.745468 
	C229.754578,245.657043 229.622162,243.593018 229.787704,241.553162 
	C230.000473,238.931320 231.465179,237.160110 234.155807,236.896515 
	C236.652740,236.651901 238.183319,238.134262 239.048065,240.360596 
	C239.227295,240.822052 239.387375,241.323776 239.402008,241.811554 
	C239.836700,256.306152 251.894501,259.169189 261.851959,261.800720 
	C276.081818,265.561340 291.048615,265.782166 305.943054,264.225555 
	C295.495544,262.420258 286.127716,258.094696 276.984863,252.950150 
	C273.132172,250.782272 268.384155,251.843948 264.225800,252.767731 
	C258.651001,254.006165 254.431091,252.159088 250.660629,248.470215 
	C248.834061,246.683197 247.177902,244.530930 248.427902,241.843658 
	C249.738266,239.026611 252.484848,238.662766 255.281662,238.880508 
	C256.262329,238.956879 257.230377,239.195511 259.757843,239.622574 
	C248.080994,229.882492 239.167770,218.519897 223.435501,218.313248 
	C220.997879,218.281235 218.508850,217.533463 216.157349,216.767487 
	C213.344604,215.851227 211.251465,214.060791 210.633560,210.894852 
	C209.986542,207.579803 212.164413,206.206619 214.838242,205.200836 
	C208.383591,199.690857 202.120987,199.034485 195.560410,204.123566 
	C192.118332,206.793640 188.162094,207.796417 183.811768,207.279892 
	C181.141037,206.962799 179.579178,205.384277 178.947495,202.934586 
	C178.318527,200.495468 179.560455,198.854416 181.573502,197.541962 
	C186.685654,194.209000 192.131195,192.726624 198.196579,194.172226 
	C200.110931,194.628494 202.029404,195.117081 204.295959,194.695633 
	C203.862183,193.473572 203.386154,192.423065 203.117111,191.321991 
	C202.172424,187.455551 204.615723,185.177734 208.456619,186.325607 
	C212.082092,187.409103 214.524918,189.938934 215.814941,193.322433 
	C220.529602,205.688080 232.472122,210.424576 241.368027,218.627869 
	C241.928223,217.940033 242.265076,217.714188 242.314011,217.437439 
	C242.825287,214.546005 242.552444,211.140884 246.431824,210.291565 
	C250.265121,209.452332 252.154663,212.373627 254.112152,214.783905 
	C257.017883,218.361786 258.322754,222.759430 259.305206,227.120819 
	C261.983215,239.008911 271.532318,244.250412 281.234222,250.999573 
	C280.456024,247.054764 279.658478,244.262695 279.403564,241.421906 
	C279.036255,237.328644 280.020477,233.558029 284.526215,232.279938 
	C288.912231,231.035797 291.270355,234.029556 293.236237,237.318069 
	C295.448822,241.019287 295.359680,245.315720 296.175568,249.359192 
	C297.646667,256.649963 300.332245,259.791626 307.543610,260.419861 
	C313.183258,260.911224 318.982422,261.569183 325.141266,259.708160 
	C314.016754,252.120712 311.118256,245.882217 316.117218,240.130310 
	C316.482880,245.718109 317.882721,250.522156 322.759460,253.510254 
	C327.762207,256.575562 332.693451,257.044250 337.691772,253.496613 
	C341.102509,251.075836 344.254120,248.383118 347.110291,245.322815 
	C348.290863,244.057846 349.148804,242.140305 351.526642,242.578186 
	C353.032959,245.120514 351.008728,246.563568 349.739594,248.171021 
	C342.470856,257.377472 332.159943,261.603943 321.523712,265.238861 
	C318.380615,266.313019 315.162567,267.195251 311.935516,267.989258 
	C307.850006,268.994476 305.755127,271.523773 305.253082,275.658539 
	C304.811768,279.293182 304.093323,282.892975 304.306854,286.585419 
	C304.354614,287.411194 304.295105,288.257904 304.167969,289.076813 
	C303.074249,296.122040 298.362091,300.390106 292.999237,299.224670 
	C288.189148,298.179352 285.484161,291.290833 287.453369,285.019714 
	C287.939514,283.471497 288.542206,281.959900 289.463562,279.395416 
	C283.729156,283.583679 278.827911,287.189545 275.265900,292.202393 
	C272.974274,295.427429 274.376892,298.960083 275.415070,302.298065 
	C276.727264,306.516998 276.860443,310.502441 273.583313,313.972107 
	C271.719299,315.945648 269.396332,317.038452 266.840393,315.917358 
	C264.197327,314.758087 263.889130,312.266907 264.109985,309.558716 
	C264.890167,299.992828 269.007538,292.061615 277.041260,284.655548 
	C272.445435,285.225067 269.221161,285.274017 266.381104,283.442993 
	C264.338165,282.125854 262.534546,280.505646 262.925018,277.841156 
	C263.335724,275.038818 265.749115,274.356812 268.086884,273.891754 
	C273.029938,272.908508 277.625854,274.683746 282.678375,275.897827 
M292.162842,283.764984 
	C291.676605,285.171814 290.973450,286.544891 290.748474,287.992340 
	C290.253448,291.177338 291.009644,294.378357 294.273193,295.287170 
	C297.413147,296.161560 299.224976,293.362885 299.693726,290.710022 
	C300.643494,285.335480 301.050720,279.865082 301.767059,273.698608 
	C296.875977,276.133179 294.598053,279.539124 292.162842,283.764984 
M290.534973,240.221802 
	C289.322113,238.153961 288.509216,234.980850 285.387482,236.000626 
	C282.478485,236.950928 282.894836,240.085541 283.272003,242.486252 
	C284.264679,248.804123 287.889404,253.235748 293.972656,256.937897 
	C292.779205,250.921158 291.790161,245.934937 290.534973,240.221802 
M266.780731,248.833359 
	C267.454895,248.561661 268.496582,248.878265 268.656372,247.359100 
	C263.296143,245.414749 258.288269,241.875885 251.622910,243.068024 
	C255.103668,249.573196 258.184845,250.718445 266.780731,248.833359 
M248.370529,223.020981 
	C250.330826,225.838684 252.403763,228.537689 256.798676,230.895950 
	C254.152298,224.231720 253.564331,217.963104 247.610229,214.150742 
	C245.384720,217.694946 247.078003,219.989761 248.370529,223.020981 
M194.642014,200.482895 
	C195.440186,199.605637 197.207428,199.685638 197.239914,197.711899 
	C191.523209,196.602676 186.870880,198.349411 182.034195,202.004166 
	C187.170135,205.615601 190.527008,202.694656 194.642014,200.482895 
M253.671707,266.182617 
	C247.251923,264.101349 242.360519,267.627075 243.100052,274.133087 
	C247.419449,272.754608 250.089447,269.226227 253.671707,266.182617 
M225.959030,212.281799 
	C222.356842,211.171570 219.039749,208.429520 214.035355,210.293518 
	C218.589478,215.724075 224.280029,214.226837 230.548721,215.232239 
	C228.498077,213.890976 227.525986,213.255157 225.959030,212.281799 
M223.677689,268.208679 
	C222.265762,269.901367 220.742249,271.546356 220.771179,274.160919 
	C226.842087,272.294952 228.220261,270.716797 229.024231,264.979492 
	C226.731247,264.740601 225.622757,266.551941 223.677689,268.208679 
M267.112427,278.396606 
	C270.249725,282.291473 272.941254,282.522369 278.327759,279.287750 
	C274.869904,277.091919 271.266296,276.611816 267.112427,278.396606 
M269.222229,303.420197 
	C268.405182,306.215515 267.625092,309.011963 268.690613,312.020996 
	C272.835205,309.750732 273.920990,304.848724 271.032867,301.837830 
	C270.152802,300.920349 269.749298,302.125305 269.222229,303.420197 
M214.431107,256.170197 
	C216.581009,256.555328 218.595917,258.148041 221.460831,256.964935 
	C218.443756,253.167419 215.091888,252.013367 210.658493,252.819901 
	C211.223343,255.034683 212.543442,255.410782 214.431107,256.170197 
M208.390350,190.193756 
	C207.721832,189.959732 206.735489,189.983414 207.048355,190.800964 
	C208.379501,194.279388 210.224304,197.421524 214.941986,199.471207 
	C213.121933,195.497543 212.021790,192.343445 208.390350,190.193756 
M151.450180,247.370895 
	C154.086212,246.375336 156.184952,244.619095 158.551270,242.587097 
	C155.806396,242.028427 153.547836,242.549911 151.445755,243.411316 
	C149.426758,244.238647 148.448105,245.611115 151.450180,247.370895 
M202.087158,268.127075 
	C200.491287,269.913788 197.857162,271.225739 199.035385,274.729034 
	C202.834732,273.427216 203.619049,270.422699 204.003250,267.377747 
	C204.085846,266.723145 203.021759,267.486389 202.087158,268.127075 
M175.697769,231.513870 
	C173.737244,230.691345 172.935638,231.214050 174.322037,233.050156 
	C176.324249,235.701889 179.184021,236.982422 182.751877,236.866623 
	C180.573334,235.185699 178.394791,233.504761 175.697769,231.513870 
M175.192978,284.096649 
	C180.748245,284.609192 179.260361,279.718750 180.634491,277.011017 
	C178.253159,278.739960 176.183945,280.719971 175.192978,284.096649 
M236.492310,249.632278 
	C237.235123,246.412109 236.984344,243.464020 234.208206,240.666550 
	C232.257278,244.505219 233.852280,246.988419 236.492310,249.632278 
M177.526825,267.504608 
	C181.155838,269.001343 181.155838,269.001343 184.187485,267.166016 
	C179.283478,264.833801 179.283478,264.833801 177.526825,267.504608 
M194.167709,245.599228 
	C194.267197,245.466370 194.412781,245.345993 194.453064,245.197098 
	C194.492569,245.051163 194.453247,244.744354 194.400177,244.732925 
	C191.921707,244.199997 189.430634,243.671112 187.703598,246.623413 
	C190.413330,248.354095 191.949875,246.554321 194.167709,245.599228 
z"/>
<path fill="#000000" opacity="1.000000" stroke="none" 
	d="
M251.525452,298.379028 
	C248.957672,296.718689 248.281204,294.643707 249.135895,292.166046 
	C249.592117,290.843536 250.647110,289.972382 252.117310,289.882812 
	C254.165802,289.758026 255.616089,290.844177 256.575958,292.508575 
	C258.421997,295.709686 256.499695,298.139648 251.525452,298.379028 
z"/>
</svg>